<?xml version="1.0" encoding="UTF-8" standalone="no"?>
<svg
   xmlns:dc="http://purl.org/dc/elements/1.1/"
   xmlns:cc="http://creativecommons.org/ns#"
   xmlns:rdf="http://www.w3.org/1999/02/22-rdf-syntax-ns#"
   xmlns:svg="http://www.w3.org/2000/svg"
   xmlns="http://www.w3.org/2000/svg"
   xml:space="preserve"
   enable-background="new 0 0 507.082 553.043"
   viewBox="0 0 507.082 553.043"
   height="553.043px"
   width="507.082px"
   y="0px"
   x="0px"
   id="svg2"
   version="1.1"><metadata
   id="metadata3397"><rdf:RDF><cc:Work
       rdf:about=""><dc:format>image/svg+xml</dc:format><dc:type
         rdf:resource="http://purl.org/dc/dcmitype/StillImage" /><dc:title></dc:title></cc:Work></rdf:RDF></metadata><defs
   id="defs3395">
	
	
	
	
	
	
	
	
	
	
	
	
	
	
	
	
	
	
	
	
	
	
	
	
	
	
	
	
	
	
	
	
	
	
	
	
	
	
	
	
	
	
	
	
	
	
	
	
	
	
	
	
	
	
	
	
	
	
	
	
	
	
	
	
	
	
	
	
	
	
	
	
	
	
	
	
	
	
	
	
	
	
	
	
	
	
	
	
	
	
	
	
	
	
	
	
	

	
	
</defs>
<path
   id="corsica_separating_line"
   d="M 432,545.25 V 475 l 64.25,-42"
   style="fill:#ffffff;stroke:#86aae0;stroke-width:1.5;fill-opacity:0" /><path
   id="path3195"
   d="m 477.96484,449.89453 -2.93945,1.96875 0.40625,1.9375 1.5625,1.96875 -1.75,1.34375 0.78125,1.5625 -1.1875,1.375 v 1.75 l 1.96875,1.78125 v 2.71875 l -1.18945,2.53125 -1.34375,0.59375 -1.56055,-2.15625 -2.75,0.21875 -0.5957,-0.40625 h -2.34375 l -2.125,1.9707 -0.81055,3.31055 -5.0625,0.96875 -3.90625,3.3125 -0.78125,2.15625 -1.9375,-0.1875 -1,-1.1875 -0.5625,3.34375 -1.375,0.56055 -0.40625,3.125 0.59375,1.375 -2.15625,1.5625 -0.5918,1.55664 h -1.5625 v 0.006 2.15625 l 1.96875,1.375 3.31055,1.93945 0.2207,1.56055 -1.9707,0.59375 -3.125,0.5957 v 1.34375 l 1.15625,1.1875 0.21875,3.90625 4.28125,1.375 1.5625,0.375 1.375,2.15625 -0.96875,1.375 -1.5625,0.56055 -1.1875,2.15625 -1.15625,1.375 0.5625,3.5 2.9375,-0.1875 0.78125,0.59375 2.75,-1.375 0.78125,0.78125 -1.375,2.9375 1.375,1.375 -2.34375,1.75 -1.5625,3.5 4.28125,1 6.0625,0.5625 -2.53125,2.9375 c 0,0 -1.18875,-0.45875 -1.71875,-0.21875 -0.016,0.008 -0.0495,0.0223 -0.0625,0.0312 -0.006,0.004 -0.0273,0.0283 -0.0312,0.0312 -0.006,0.004 -0.0273,0.0273 -0.0312,0.0312 -0.004,0.004 -0.0292,0.0273 -0.0312,0.0312 -0.008,0.009 -0.0253,0.0213 -0.0312,0.0312 -0.004,0.005 0.002,0.0243 0,0.0293 -0.006,0.011 -0.0273,0.0515 -0.0312,0.0625 -0.002,0.006 0,0.0253 0,0.0313 -0.004,0.013 -0.0293,0.0495 -0.0293,0.0625 -0.002,0.015 0,0.0485 0,0.0625 0,0.97699 -1.3457,3.34374 -1.3457,3.34374 l 1.93945,2.125 3.53125,2.15626 6.625,1.75 1.9375,0.77929 1.78125,0.78125 -1.18945,2.15625 3.125,-0.1875 0.5957,1.375 h 3.125 l 0.7793,-3.71875 -1.96875,-0.40625 2.75,-2.90625 -0.96875,-1 0.1875,-1.75 3.53125,-1.9375 0.18945,-2.15625 -2.3457,-0.1875 -1.56055,1.34375 v -1.9375 l 3.125,-0.18945 0.96875,-2.34375 0.78125,-6.84375 -0.59375,-2.9375 -0.0625,-2.8125 -0.002,0.002 -0.125,-5.77734 4.68945,-6.625 v -10.93946 l -1.93945,-3.71874 -0.59375,-11.71876 -1.375,-2.15624 -2.53125,-1.9375 -0.40625,-7.25 1.18945,-3.3125 -1.5625,-5.28126 -0.96875,-4.27929 -0.8125,-1.18945 z"
   style="fill:#cccccc;stroke:#ffffff;stroke-width:0.60000002;font-variant-east_asian:normal;opacity:1;vector-effect:none;fill-opacity:1;stroke-linecap:butt;stroke-linejoin:miter;stroke-miterlimit:4;stroke-dasharray:none;stroke-dashoffset:0;stroke-opacity:1" /><path
   id="path3199"
   d="m 447.34375,339.15625 -1.75,0.78125 -0.40625,2.9375 -3.5,0.40625 -0.59375,-2.75 -1.15625,-1.15625 -3.53125,0.375 -1.375,1.1875 -0.78125,4.09375 0.59375,0.9707 4.09375,0.4043 0.78125,2.53125 1.5625,0.78125 V 354 l -3.71875,-0.1875 -1.5625,1.75 -4.46875,-0.78125 -2.53125,2.15625 -1.78125,-0.78125 -2.53125,1.9707 0.96875,1.75 -1.56055,1.56055 h -4.875 v 2.34375 l 1.56055,0.78125 -0.59375,1.375 -3.31055,1.34375 -4.0957,0.40625 -1.1875,3.71875 -0.1875,2.3457 2.15625,1.75 -2.15625,2.5293 -2.71875,-1.375 -3.125,-0.1875 -0.40625,1.75 1.96875,1.375 -2.375,1.5625 0.8125,3.3125 6.625,1.7793 1.1875,2.53125 1.9375,0.375 -0.65625,6.09375 0.0312,0.0312 5e-5,0.002 -0.0312,-0.0293 0.0312,0.0273 5e-5,0.002 -5e-5,-0.002 5e-5,0.002 -5e-5,-0.002 v 0 l 5e-5,0.002 -0.0312,-0.0293 -0.125,1.1543 -1.1543,-1.375 -1.5625,-1.375 -1,2.93945 -1.75,1.56055 -0.75,-0.0605 0.0312,0.1875 -1.07807,0.84375 1.04687,-1.03125 0.0292,0.1836 -0.0312,-0.1875 -1.78125,-0.125 -2.9375,-2.15625 -0.78125,-2.53125 -5.46875,-0.40625 -4.0957,-0.375 -0.4043,-2.34375 1.375,-2.9375 -2.53125,2.15429 -3.90625,-0.40429 -0.78125,-1.37305 2.71875,-3.6875 -2.71875,-2.5625 -2.75,0.21875 -2.125,3.3125 0.5625,3.5 3.31055,0.40625 -0.56055,1.5625 -2.5625,0.1875 -2.90625,2.9375 -0.78125,-0.96875 0.5625,-3.90625 -1.15625,-1.375 -5.28125,0.78125 -1.03125,2.09375 0.5625,0.3125 3.31055,5.5 v 4.4375 l 5.8125,5.78125 v 2.5 l -2.24805,1.28125 h -0.002 l -5.46875,3.125 -1.4043,10.5 -5.78125,-0.8125 -1.65625,4.40625 1.375,1.9375 -6.34375,3.875 -1.75,4.0625 6.1875,0.28125 8.21875,0.59375 1.5625,1.5625 h -2.9375 l -1.93945,3.31055 8.375,1.75 6.65625,-1.1543 -3.5293,-3.34375 2.34375,-1.9375 3.71875,1.56055 1.75,3.7207 11.15625,0.1875 2.90625,-1.1875 0.59375,1.7793 -3.125,2.7207 4.3125,0.1875 -0.78125,1.96875 -1.1875,1.375 h 9.56055 l 4.68945,1.5625 0.46875,0.62305 v 0.002 l 0.53125,0.7168 3.5,1.5625 0.96875,3.90625 2.15625,0.40625 1.96875,-1.375 3.5,-2.15625 6.06055,0.59375 -0.1875,1.5625 -1.96875,0.96875 4.6875,0.21875 -1.15625,-1.1875 -0.4043,-2.53125 2.5293,-1.75 2.93945,0.96875 1.1875,0.375 0.96875,1.1875 1.375,-0.96875 0.375,-2.5625 1.5625,-1.34375 h 4.09375 l 1.1875,-1.78125 2.71875,0.78125 3.125,-1.34375 v -5.09375 l -4.09375,0.1875 3.125,-1.9375 1.5625,-2.15625 0.40625,-3.125 5.65625,-0.78125 3.15625,-3.53125 0.002,-5e-5 -0.002,5e-5 0.002,-5e-5 -0.002,5e-5 0.002,-5e-5 -0.002,5e-5 0.002,-5e-5 v 0 l 0.15625,-0.1875 0.1875,-4.46875 3.90625,0.77929 1.375,-1.77929 1.96875,0.40429 0.1875,-6.06054 4.5,-0.375 3.90625,-3.53125 h 3.5 l 0.1875,-2.15625 3.53125,-2.125 -1.96875,-4.5 2.9375,-2.53125 -0.5957,-2.93555 4.3125,-1.375 1.15625,-4.28125 -0.5625,-2.9375 -1,-1.75 L 496.125,390 l -2.90625,0.21875 -9.1875,3.3125 h -2.9375 l -5.0625,-4.09375 -5.09375,-1.375 H 468 v -3.53125 L 463.90625,382 v -0.125 h -0.002 v -3.77734 l 2.75,-0.375 -1.5625,-1.375 -1.96875,-0.59375 -0.96875,-2.53125 0.78125,-1.75 3.5,-3.71875 -0.5625,-2.75 0.5,-0.53125 0.002,-0.006 -0.002,0.006 0.002,-0.006 1.84375,-2 2.125,0.1875 v -1.75 l -2.71875,-1.375 -0.59375,-5.65625 -2.15625,-0.7793 -2.71875,0.4043 -5.09375,-2.56055 -0.78125,-5.84375 -2.90625,-0.9707 -1,-1.96875 -1.28125,-2.81055 z"
   style="fill:#cccccc;stroke:#ffffff;stroke-width:0.60000002" /><path
   id="path3211"
   d="m 252.43945,489.3125 v 0 l 0.34375,2.0625 2.9375,2.75 5.84375,1.5625 0.1875,3.5 3.125,2.75 2.34375,-0.40625 3.34375,-4.09375 4.09375,-0.78125 6.43946,2.15625 5.46875,4.6875 1.5625,-1.96875 h 1.375 l 1.375,0.96875 1.15429,-0.5625 0.18946,-2.75 5.875,-1.375 1.9375,-2.53125 2.9375,-0.96875 h 4.09375 l 2.5625,2.71875 3.125,0.2207 v -3.125 l -1.5625,-2.15625 -2.75,-1.18945 -0.44141,-17.0625 -0.15625,-5.59375 0.21875,-6.4375 -2.34375,0.1875 -1.96875,-2.90625 1.5625,-2.5625 3.31055,3.125 2.93945,-2.34375 1.96875,-1.9375 0.25,-2.0625 0.125,-1.06055 7.03125,-2.15625 0.78125,-1.75 5.46875,-0.18945 1.75,-2.1543 10.5625,-8.40625 6.625,-4.68945 2.6875,0.18945 3,0.21875 v 3.90625 l 4.46875,-0.21875 2.40625,0.125 1.75,-4.0625 6.34375,-3.875 -1.375,-1.9375 1.65625,-4.40625 5.78125,0.81055 1.4043,-10.5 7.7207,-4.4043 v -2.5 l -5.8125,-5.78125 v -4.43945 l -3.3125,-5.5 -6.90625,-3.875 -0.53125,3.03125 -2.7793,0.28125 -0.8125,-3.03125 -2.78125,0.53125 -0.53125,3.875 -2.21875,-0.8125 -4.6875,-3.06055 -2.21875,1.125 v -5.53125 l -3.18945,-1.9082 v 0.002 l -0.96875,-0.59375 0.5625,-4.125 -3.3125,-3.59375 -1.375,-7.18945 -4.96875,-6.34375 -3.625,0.875 -0.78125,-2.71875 H 329.75 l -0.375,2.34375 -5.0625,1.5625 -3.53125,-9 -5.46875,1.96875 -1.5625,3.5 -3.5,-2.34375 -2.75,8.59375 -2.81055,6.46484 -1.7207,-2.11914 -0.5625,-5.53125 H 300.5 l -0.84375,-5.52929 -3.875,0.56054 -0.53125,-3.59375 -0.5625,-0.8457 -5.53125,4.71875 v 4.6875 h -1.375 l -0.5625,4.40625 -1.375,0.5625 -1.09375,2.46875 h -6.09375 l -0.53125,-0.8125 h -2.78125 l -1.65625,2.75 -0.59375,-0.0605 v 0 h -0.002 v 0 h 0.002 -0.002 l -1.59375,-0.21875 1.09375,-3.3125 -2.5,-1.09375 2.5,-5.8125 -3.3125,-2.46875 -1.12305,-7.18945 -3.03125,-0.8125 -2.21875,2.18945 -1.09375,-1.93945 -3.3125,3.3125 -2.21875,0.28125 -3.84375,-5.5 -4.96875,-2.21875 -4.15625,1.9375 -0.59375,0.0937 0.125,0.1875 -1.34375,1.15625 v 2.15625 l 1.75,1.9375 -1.75,3.125 -1.5625,1 -0.21875,1.93945 -3.3125,0.40625 0.18945,2.125 1.1875,0.4043 -2.75,3.90625 -4.28125,0.375 -0.18945,2.9375 -1.78125,1.75 -0.96875,2.5625 -3.90625,0.1875 1.5625,5.84375 1.6543,3.625 0.004,0.002 -0.004,-0.002 0.004,0.002 0.3125,0.6875 -4.3125,0.78125 -2.93945,-1.75195 -1.375,4.46875 2.15625,2.3457 -0.96875,3.7168 -1.1875,1.375 0.81055,2.34375 -3.71875,0.78125 -2.9375,0.78125 0.78125,2.71875 -1.46875,0.4375 -0.4668,0.15625 -1,0.96875 -2.9375,-2.90625 -5.84375,0.5625 -1.5625,2.75 -3.53125,0.375 -3.31055,0.59375 -1.375,-1.9375 -3.125,3.125 -2.3125,-1.9707 -1.375,2.93945 0.1875,2.53125 -2.15625,0.59375 -0.96875,-1.375 -0.96875,-2.93945 -2.75,2.3457 -1.9375,-0.78125 -2.15625,0.40625 -1.9375,2.34375 2.31055,3.90625 -1.56055,1.56055 0.59375,3.3125 -1.93945,2.53125 -1.375,3.71875 1.5625,2.75 4.9375,0.34375 v 0.002 -0.002 0.002 0 -0.002 0.002 l 0.34375,0.0312 3.3125,5.46875 -2.15625,1.96875 1.5625,2.34375 2.34375,3.5 -1.93945,2.53125 -3.125,7.03125 -5.2793,4.5 1.375,2.75 -1.18945,0.78125 -2.90625,-0.5957 -0.81055,6.43945 -1.5625,1.1875 -0.3125,4.03125 0.5,-0.28125 3.3125,1.96875 3.90625,2.9375 0.375,2.3457 3.125,2.5293 h 2.5625 l 6.4375,-2.75 2.71875,3.125 3.71875,1 1.375,-2.34375 1.75,0.78125 3.78125,0.25 v 0.002 l 7.9375,0.53125 0.40625,-9.5957 2.71875,0.40625 4.03125,2.34375 0.002,-0.002 1.06055,0.59375 6.03125,1.15625 h 2.5625 l 3.3125,4.3125 8.40625,-0.40625 3.31055,5.28125 2.93945,-1.18946 8.59375,1.18946 0.625,3.59375 0.002,0.002 v 0 0 0 l -0.002,-0.002 0.002,0.002 v 0 0 0 0 0 l -0.002,-0.002"
   style="fill:#ff0000;stroke:#ffffff;stroke-width:0.60000002;font-variant-east_asian:normal;opacity:1;vector-effect:none;fill-opacity:1;stroke-linecap:butt;stroke-linejoin:miter;stroke-miterlimit:4;stroke-dasharray:none;stroke-dashoffset:0;stroke-opacity:1" /><path
   id="path3213"
   d="m 301.625,247.96875 -2.71875,3.5 -1.5625,0.1875 -1.75,1.78125 -1.96875,-2.15625 -5.25,5.28125 v 3.125 l 0.96875,0.78125 0.1875,1.5625 -2.71875,2.125 -2.56055,-0.78125 -4.875,1 -2.53125,2.90625 -0.93945,2 0.15625,-0.0312 2.34375,3.3125 v 2.34375 l 1.3457,1.75 1.375,-1.75 1.56055,2.75 2.15625,0.78125 L 287,283.5 l 0.0937,1.46875 -0.002,0.002 0.002,-0.002 -0.002,0.002 0.28125,4.59375 1.5625,1.93946 0.78125,3.71875 -2.34571,1.75 -0.56054,2.75 -2.15625,1.15625 -3.71875,2.15429 0.375,1.75 4.5,4.5 0.40625,2.75 -1.78125,2.90625 v 2.75 l 1.1875,1.375 0.59375,3.3125 -0.375,1.34375 h 0.002 l -0.5957,2.1543 0.9707,2.34375 -1.18945,1.375 h -1.9375 l -1.96875,-2.15625 -1.75,-0.96875 -0.1875,5.46875 -3.53125,2.15625 -2.53125,3.5 0.59375,3.53125 -0.78125,1.5625 -1,3.125 h -1.5625 l -1.56055,1.9375 1.1875,1.1875 0.78125,1.93945 -2.53125,1.7793 1.03125,6.53125 3.3125,2.46875 -2.5,5.8125 2.5,1.09375 -1.0957,3.3125 2.18945,0.28125 1.65625,-2.75 h 2.7793 l 0.53125,0.8125 h 6.09375 l 1.0957,-2.4707 1.375,-0.56055 0.56055,-4.40625 h 1.375 v -4.6875 l 5.53125,-4.7207 0.5625,0.8457 0.53125,3.59375 3.875,-0.5625 0.84375,5.53125 h 1.90625 l 0.5625,5.53125 1.71875,2.125 2.81054,-6.46875 2.75,-8.5957 3.5,2.3457 1.5625,-3.5 5,-1.8125 v 0 l 0.004,-5e-5 -0.004,5e-5 0.004,-5e-5 v 0 0 0 l -0.004,5e-5 v 0 0 l 0.004,-5e-5 0.46875,-0.15625 3.53125,9 5.0625,-1.5625 0.375,-2.34375 h 1.96875 l 0.78125,2.71875 3.625,-0.875 4.5,5.75 v 0 l 0.002,0.002 -0.002,-0.002 v 0 l 0.002,0.002 v 0 l -0.002,-0.002 v 0 l 0.002,0.002 v 0 0 0 0 0 l -0.002,-0.002 v 0 l 0.002,0.002 v 0 l 0.46875,0.59375 1.375,7.18946 3.31055,3.59375 -0.56055,4.125 4.15625,2.5 v 5.53125 l 2.21875,-1.125 4.6875,3.06054 2.21875,0.8125 0.53125,-3.875 2.78125,-0.53125 0.8125,3.03125 2.7793,-0.28125 0.53125,-3.03125 6.34375,3.5625 1.03125,-2.09375 2.68945,-0.40625 v -0.002 l 2.5918,-0.375 1.15625,1.375 -0.5625,3.90625 0.78125,0.96875 2.90625,-2.9375 2.5625,-0.1875 0.56055,-1.5625 -3.31055,-0.40625 -0.5625,-3.5 2.125,-3.3125 2.75,-0.21875 2.71875,2.5625 -2.71875,3.6875 0.78125,1.375 3.90625,0.40625 2.53125,-2.15625 -1.375,2.9375 0.4043,2.3457 4.0957,0.375 5.46875,0.4043 0.78125,2.53125 2.9375,2.15625 2.53125,0.1875 1.75,-1.56055 1,-2.93945 1.56055,1.375 1.15625,1.375 0.78125,-7.25 -1.9375,-0.375 -1.1875,-2.5293 -6.625,-1.78125 -0.8125,-3.3125 2.375,-1.5625 -1.96875,-1.375 0.40625,-1.75 3.125,0.1875 2.71875,1.375 2.15625,-2.52929 -2.15625,-1.75 0.1875,-2.34571 1.1875,-3.71875 4.09375,-0.40625 3.3125,-1.34375 0.34375,-0.78125 0.002,-0.006 -0.002,0.006 0.002,-0.006 v 0 0 0 l -0.002,0.006 v 1.4e-4 l 0.002,-0.006 v -1.4e-4 0 l -0.002,0.006 0.002,-0.006 v 1.4e-4 0 0 l -0.002,0.006 v 0 l 0.002,-0.006 0.25,-0.59375 -1.56055,-0.78125 v -2.34375 h 4.875 l 1.56055,-1.5625 -0.96875,-1.75 2.53125,-1.96875 1.78125,0.78125 2.53125,-2.15625 4.46875,0.78125 1.5625,-1.75 3.71875,0.1875 v -4.27929 l -1.5625,-0.78125 -0.78125,-2.53125 -4.09375,-0.4043 -0.5957,-0.96875 0.78125,-4.09375 1.375,-1.18945 3.53125,-0.375 1.15625,1.15625 0.59375,2.75 3.5,-0.40625 0.40625,-2.9375 1.75,-0.78125 3.75,0.18945 -0.0625,-0.125 5.84375,-2.3457 2.15625,1.375 h 2.15625 l 0.1875,-2.34375 2.53125,-1.375 0.96875,-1.15625 5.0957,-1.96875 0.59375,-3.31055 -1,-1.5625 2.75,-4.6875 L 469.7813,320.873 469,318.12305 463.71875,315 c 0,0 0.31455,-5.9875 -0.18945,-7.0625 -0.016,-0.027 -0.0476,-0.0768 -0.0605,-0.0937 -0.004,-0.006 -0.0253,-0.0263 -0.0312,-0.0312 h -0.0312 v -0.0312 h -0.0312 -0.0312 -0.0312 c -0.781,0.195 -3.6875,0.40625 -3.6875,0.40625 l -2.9375,-3.34375 0.0937,-3.21875 -1.31055,-0.15625 1.31055,0.1543 0.0957,-3.4043 6.6543,-2.75 0.78125,-1.93945 -0.40625,-4.31055 -4.2793,-4.4707 -1.375,0.78125 v -1.78125 -2.9043 l -3.7207,-1.78125 -0.1875,-1.5625 2.15625,-2.34375 v -2.71875 l -3.53125,-3.71875 -0.1875,-2.53125 h -6.6565 l -4.46875,0.78125 -4.3125,3.5 -1.15625,-1.75 -2.15625,0.1875 -1.96875,4.3125 0.21875,1.75 2.125,1.75 -3.9043,2.5625 -2.53125,2.34375 h -4.3125 v 0 0 l -0.004,-0.004 v 0 0 l 0.004,0.004 v 0 l -0.004,-0.004 h -2.125 v -3.71875 l 2.34375,-1.375 3.5,-0.375 0.21875,-1.96875 -1.1875,-0.78125 2.9375,-3.71875 -0.40625,-1.15625 -3.34375,-1.78125 -8.125,8.93946 h -5.65625 v -2.34375 l -3.125,-1.5625 -3.71875,4.09375 -2.9375,0.40625 v -2.75 l -2.53125,-1.15625 -3.90625,-5.46875 -3.53125,-1.375 -1.1543,-2.5293 -1.96875,-0.40625 -1.9375,1.375 -1.5625,0.40625 -2.15625,-1.78125 -2.15625,0.21875 -1.375,2.53125 -3.6875,14.4375 -0.53125,1.18945 v 0.004 l -0.6543,1.55664 -1.375,-0.1875 -0.75,-3.90625 -1.00195,-3.125 -2.125,0.1875 -1.78125,1.75 -1.15625,-1.5625 -1.75,1.5625 -2.375,-1.5625 h -1.9375 l -0.78125,0.59375 -0.40625,2.25 h -0.002 l -0.75,4 h -2.15625 l -1.56055,1.5625 -1.18945,-1.1875 -6.25,-0.96875 -2.34375,1.375 h -1.5625 l -0.375,-1.375 -2.9375,-0.59375 -0.1875,-3.125 -0.5918,-0.1875 -0.002,-1.5e-4 -0.28125,0.0312 0.004,-0.002 0.0937,-0.21875 4.09375,-3.125 0.1875,-7.625 -1.375,-1.93946 h -3.125 l -1.15625,-1.56054 h -3.3125 l -0.96875,-1.18946 v -2.9375 l -3.9375,-7.40625 -1.9375,-1.375 -3.71875,5.09375 -1.5625,0.375 -0.59375,-2.53125 -1.75,-0.77929 -0.78125,1.56054 H 316.5 l -0.40625,-1.75 -1.96875,1.15625 L 312,255 l -2.34375,-2.5625 -3.34375,-1.56055 -0.18945,-2.53125 z"
   style="fill:#cccccc;stroke:#ffffff;stroke-width:0.60000002;font-variant-east_asian:normal;opacity:1;vector-effect:none;fill-opacity:1;stroke-linecap:butt;stroke-linejoin:miter;stroke-miterlimit:4;stroke-dasharray:none;stroke-dashoffset:0;stroke-opacity:1" /><path
   id="path3231"
   d="m 188.75,225.6875 -3.71875,3.90625 -0.9375,1.625 -0.40625,0.71875 -1.375,-1.15625 -0.59375,-1.375 -5.28125,0.1875 -4.875,0.96875 -5.28125,0.40625 v 2.71875 l -2.71875,1.78125 -6.06055,-1.375 -4.0957,1.75 1.93945,2.75 v 2.34375 l 4.6875,3.90625 -1.15625,2.53125 3.125,3.5 -1.375,1.78125 1.9375,2.90625 0.59375,5.46875 -1.1582,1.5625 1.375,2.34375 -1.375,2.5625 0.1875,1.5625 1.5625,-1.18945 1.9375,1.9707 -2.71875,1.75 L 162,272.75 l -2.15625,0.59375 -2.53125,1.1875 -0.1875,-0.1543 v 0 l -0.002,-0.002 -2.9375,-2.1875 -3.71875,1.56055 -1.1543,-3.12305 -2.75,0.1875 -5.96875,3.625 1.4375,1.3125 -3.125,2.53125 -0.375,1.96875 -2.9375,0.375 -1.5625,-1.75 -3.90625,-0.375 -0.40625,-1.96875 -2.34375,-1.5625 -3.3125,1.1875 2.15625,3.125 h 2.71875 l 2.75,1.75 2.15625,1.75 4.09375,-0.1875 0.78125,1.75 2.71875,0.59375 1,2.71875 1.75,0.78125 -0.1875,2.15625 -2.34375,-0.375 -0.78125,1.15625 1.75,2.53125 -0.96875,4.3125 -2.34375,-0.18945 0.1875,2.71875 0.59375,0.9707 h -2.75 l -0.375,-1.5625 1.75,-2.34375 -0.59375,-1.34375 L 137.1562,295.6875 136.75,291 l -3.3125,-0.40625 -2.71875,-3.3125 -0.40625,6.8457 4.5,3.31055 0.375,3.71875 0.78125,4.28125 0.40625,4.3125 2.34375,-0.21875 4.09375,3.34375 2.75,1.5625 0.18945,1.9375 2.1543,0.40625 6.25,6.25 1.4707,6.75 h -0.004 l 0.28125,1.25 1.375,5.65625 0.375,5.65625 -0.96875,1.56055 -0.96875,-4.6875 -2.75,-10.71875 -9.96875,-9 0.21875,-4.09375 -1.9668,-0.18555 -3.125,4.6875 -0.96875,16.40625 -2.53125,16.59375 -1.78125,12.875 -0.1875,3.3457 1.375,-4.5 2.71875,-3.53125 3.90625,3.53125 0.40625,1.1543 1.15625,1.5625 -4.875,0.21875 -0.78125,-1.1875 -1.93945,0.78125 -0.4043,2.9375 -2.15625,2.9375 v 4.4707 l -0.0312,0.18555 h -0.002 l -3.46875,18.5625 -4.5,17.1875 -1.375,6.65625 -1.15625,4.6875 -2.90625,5 h 0.002 l -0.8125,1.4375 -4.5,5.46875 -3.5,1.375 -2.53125,0.375 v 2.15625 l 2.3457,2.15625 3.5,0.1875 0.1875,2.53125 2.75,0.21875 0.78125,-1.78125 3.71875,1.5625 2.34375,0.59375 0.5625,2.34375 -1.34375,1.18945 v 3.6875 l -2.75,1.375 -0.18945,1.75 1.75,1.96875 3.125,0.96875 0.59375,-2.9375 1.75,-1.9375 -0.1875,2.5293 1.375,1.96875 h 3.5 l 1.5625,2.125 4.6875,0.78125 4.5,2.75 h 7.4063 l 0.40625,4.09375 5.0625,3.90625 1.96875,2.34375 2.15625,-1.15625 1.9375,-0.40625 0.96875,0.9707 1.78125,-0.9707 3.40625,-1.875 0.31055,-4.0293 1.5625,-1.18945 0.8125,-6.4375 2.90625,0.59375 1.1875,-0.78125 -1.375,-2.75 5.28125,-4.5 3.125,-7.03125 1.9375,-2.5293 -2.34375,-3.5 -1.5625,-2.3457 2.15625,-1.96875 -3.3125,-5.46875 -5.2793,-0.375 -0.1875,-0.34375 -0.002,0.002 -1.375,-2.40625 1.375,-3.71875 1.93945,-2.53125 -0.5957,-3.3125 1.5625,-1.5625 -2.3125,-3.90625 1.93945,-2.34375 2.15625,-0.40625 1.9375,0.78125 2.75,-2.34375 0.96875,2.9375 0.96875,1.375 2.15625,-0.59375 -0.1875,-2.53125 0.625,-1.375 -0.002,-0.002 v -0.002 l 0.75,-1.5586 2.3125,1.96875 3.125,-3.125 1.375,1.9375 3.3125,-0.59375 3.53125,-0.375 1.56054,-2.75 5.84375,-0.5625 2.93946,2.90625 1,-0.96875 1.9375,-0.59375 -0.78125,-2.71875 2.9375,-0.78125 3.71875,-0.78125 -0.81055,-2.34375 1.1875,-1.375 0.96875,-3.71875 -2.15625,-2.3457 1.375,-4.46875 2.93945,1.75 4.31055,-0.78125 -1.96875,-4.31055 -1.5625,-5.84375 3.90625,-0.18945 0.78125,-2.06055 0.1875,-0.5 1.78125,-1.75 0.18945,-2.9375 4.2793,-0.375 2.75,-3.90625 -1.1875,-0.40625 -0.1875,-2.125 3.3125,-0.40625 0.21875,-1.9375 1.56055,-1 1.75,-3.125 -1.75,-1.9375 v -2.15625 l 1.3457,-1.15625 -0.12109,-0.18945 0.58984,-0.0957 4.15625,-1.9375 4.96875,2.21875 3.8418,5.5 2.21875,-0.28125 3.3125,-3.31055 1.09375,1.9375 2.21875,-2.1875 3.03125,0.81055 0.0937,0.65625 2.53125,-1.78125 -0.7793,-1.93555 -1.1875,-1.1875 1.56055,-1.9375 h 1.5625 l 1,-3.125 0.78125,-1.5625 -0.59375,-3.53125 2.53125,-3.5 3.53125,-2.15625 0.1875,-5.46875 1.75,0.96875 1.96875,2.15625 h 1.9375 l 1.18945,-1.375 -0.9707,-2.34375 0.9707,-3.5 -0.5957,-3.3125 -1.1875,-1.375 v -2.75 l 1.78125,-2.90625 -0.40625,-2.75 -0.43555,-0.4375 h -0.002 l -4.06055,-4.0625 -0.375,-1.75 3.71875,-2.15625 2.15625,-1.15625 0.5625,-2.75 2.34375,-1.75 L 288.9375,291.5 287.37695,289.5625 287,283.5 l -2.15625,-5.0625 -2.15625,-0.78125 -1.56055,-2.75 -1.375,1.75 -1.3457,-1.75 v -2.34375 l -2.34375,-3.31055 -6.4375,0.7793 -3.71875,-0.96875 -9.78125,-1.1875 -1.15625,3.125 -3.53125,-0.1875 -0.78125,-0.40625 -2.34375,0.21875 -1.75,-1.1875 -3.375,3.875 -0.002,0.002 v 0 l -0.53125,0.625 -3.12305,-3.12695 -1.75,1.75 -3.91188,-0.29766 0.006,-0.48359 v 0 l 0.375,-2.9375 -2.125,-1.15625 -1.1875,-4.09375 -3.125,-0.40625 -1.93945,-1.93945 -3.71875,-2.9375 0.78125,-2.34375 v -3.71875 l -3.53125,-3.5 -0.375,-2.75 -3.34375,-3.5 -1.15625,-4.6875 -1.375,-0.59375 -1.56055,-2.15625 -1.5625,0.96875 0.40625,2.15625 -5.09375,1.1875 H 199.5 l 0.1875,-2.34375 V 233.3106 L 195,231.9375 v -2.34375 l -3.71875,-0.78125 -0.78125,-3.125 z"
   style="fill:#cccccc;stroke:#ffffff;stroke-width:0.60000002;font-variant-east_asian:normal;opacity:1;vector-effect:none;fill-opacity:1;stroke-linecap:butt;stroke-linejoin:miter;stroke-miterlimit:4;stroke-dasharray:none;stroke-dashoffset:0;stroke-opacity:1" /><path
   id="path3285"
   d="m 69.78125,123.21875 -1.78125,1.375 -4.46875,0.5625 -1,1.375 -3.125,-2.34375 -4.09375,2.75 1.560547,2.125 -2.71875,3.71875 -0.125,-0.0625 v -0.002 l -3.21875,-1.875 -5.46875,0.1875 v 3.90625 h -1.5625 l -0.375,-1.75 -2.34375,0.375 -0.404297,-4.49805 -2.125,2.34375 -2.34375,-0.96875 -4.3125,0.40625 -0.78125,1.9375 -2.53125,0.59375 -0.40625,-2.15625 -4.46875,0.59375 v 1.375 l -3.125,0.18945 -1.375,-0.9707 -1.560547,0.78125 -0.40625,2.34375 -5.25,0.18945 -2.7499999,3.31055 2.3437499,1.75 -3.1249999,2.5625 0.96875,1.75 -0.78125,4.28125 3.1249999,0.40625 1.1875,-1.1875 0.59375,0.7793 7.40625,-0.96875 v 0 l 0.591797,0.5957 0.375,1.9375 3.90625,-1.75 -0.78125,2.75 4.3125,0.18945 -0.189453,1.1543 -4.6875,-0.1875 -3.71875,-0.96875 -4.5,-2.15625 -2.71875,3.125 3.5,1.1875 -0.1875,5.25 0.96875,-0.7793 2.15625,-3.3125 4.09375,2.34375 1.96875,0.40625 0.78125,3.125 -1.189453,2.125 -2.529297,-0.1875 H 20.75 l -3.90625,0.59375 -6.65625,0.375 -1.34375,1.7793 1.9375,1.15625 2.15625,-0.1875 1.75,1.56055 2.53125,-0.1875 4.125,4.6875 0.96875,5.0625 -1.375,2.75 4.09375,0.78125 4.5,-0.21875 0.970703,-1.75 -1.75,-2.34375 1.75,0.78125 1.779297,-0.18946 3.125,1.75 1.939453,-0.375 h 0.78125 v 0 l 2.529297,4.09375 5.470703,0.375 v 0 l 1.5625,0.78321 3.34375,0.59375 h 2.53125 l 0.15625,0.21875 v 0.004 l 2.1875,3.5 3.125,0.78125 L 59.625,190 v 0 l 2.71875,1.1875 3.53125,3.5 1.15625,2.15625 -0.375,2.53125 -0.40625,2.5625 2.34375,1.75 1.1875,-1.375 -1.1875,-1.5625 v -3.5 l 2.34375,0.5625 v 0 l 1.375,-0.96875 2.53125,2.15625 1.1875,-1.96875 v 0 L 77,197.25 l 2.71875,-0.40625 v 0 l 1.96875,-0.78125 1.939453,2.34375 -0.970703,1.5625 -2.529297,-0.78125 -2.939453,-1.375 -1.560547,1.96875 2.34375,0.78125 1.75,2.71875 10.560547,-0.96875 2.71875,0.59375 -1.34375,1.15625 0.1875,1.78125 0.375,0.2793 0.84375,-0.1543 1.75,-1.75 1.15625,1.34375 h 3.125 l 3.71875,-1.93945 5.46875,-2.1543 0.18945,-5.4707 1.15235,-0.62305 3.93945,-2.09375 12.09375,-0.59375 0.78125,-2.15625 1.96875,-1.9375 4.28125,-0.5957 0.1875,-2.1543 2.9375,0.4043 1.75,2.3457 3.93945,0.96875 0.75,-1.5625 1,-3.53125 2.5293,-6.25 1.375,-0.78125 3.3125,0.40625 v -5.28125 l -1.375,-1.375 v -5.65625 L 148.5,163.59375 v -3.125 L 150.46875,158.5 v -3.90625 L 149.5,153.8125 l 0.1875,-5.46875 -1.56055,-0.78125 h -2.3457 L 143.8125,146 l -2.125,2.53125 -1.75,0.21875 -1.5625,2.125 -1.5625,-0.375 -3.34375,-2.9375 -1.15625,-3.71875 -0.59375,-2.4707 H 122.125 l -3.53125,-2.1543 2.34375,-3.125 -4.6875,-0.1875 -1.875,2.125 v 0 c -0.42575,0.49823 -0.87522,0.9888 -1.25195,1.4043 l -3.71875,-0.40625 -0.375,2.15625 -2.34375,0.1875 -0.18946,-2.71875 -1.96875,-0.59375 -1.375,1.5625 v -3.90625 l -2.34375,1.75 -3.499996,-0.59375 -1.1875,2.34375 -7.21875,3.90625 v 1.96875 h -1.5625 v -3.53125 l -4.09375,-1.9375 0.375,-3.53125 -3.6875,-2.71875 v -3.3125 l -2.75,-0.59375 0.1875,-3.125 -2.125,-0.1875 L 75.4375,124 h -3.90625 l -0.59375,1.9375 z"
   style="fill:#cccccc;stroke:#ffffff;stroke-width:0.60000002;font-variant-east_asian:normal;opacity:1;vector-effect:none;fill-opacity:1;stroke-linecap:butt;stroke-linejoin:miter;stroke-miterlimit:4;stroke-dasharray:none;stroke-dashoffset:0;stroke-opacity:1" /><path
   id="path3287"
   d="m 157.501,234.094 v 0 0 l 6.06345,1.3728 2.71875,-1.78125 v -2.71875 l 5.28125,-0.40625 4.875,-0.96875 5.28125,-0.1875 0.59375,1.375 1.375,1.15625 1.34375,-2.34375 3.71875,-3.90625 h 1.5 l 2.21875,-8 3.125,-3.71875 -0.21875,-4.28125 1.96875,-2.5625 V 205.9668 L 196.37695,204.7793 197,203.5 l 1.3125,-2.625 3.90625,2.75 h 2.1543 l -1.1875,-3.90625 2.375,1.5625 1.34375,-1.96875 5.65625,-1.5625 -0.96875,-2.34375 1.375,-1.75 2.9375,-1.15625 2.71875,-3.53125 V 185.25 h 1.9707 l 0.7793,-2.71875 0.18945,-4.09375 -1.93945,-1.78125 1.5625,-2.71875 L 223.5,171 220.78125,169.0625 218.25,168.65625 215.5,164.5625 h -0.78125 l -0.375,0.59375 h -4.0957 l -1.96875,-2.9375 -3.31055,-1.18945 L 204,154 l -1.5625,-2.125 -5.28125,0.1875 -5.2793,4.875 -2.75,-0.15625 -0.56635,-0.0332 m 0.56245,0.0312 v 0 l -0.5625,-0.0312 -1,-3.53125 -2.53125,-0.96875 -0.78125,-4.28125 -1.74805,-1.56055 -1.9375,0.1875 -0.8125,1.9375 -2.90625,1.18945 -5.28125,-0.78125 -5.28125,3.125 -1.9375,-1.375 -2.9375,1.96875 -2.15625,-1.5625 -1.375,-2.34375 -2.90625,-1.1875 L 153,149.125 l -3.3125,-0.40625 -0.1875,5.09375 0.96875,0.78125 V 158.5 L 148.5,160.46875 v 3.125 l 0.59375,1.9375 v 5.65625 l 1.375,1.375 v 5.28125 l -3.3125,-0.40625 -1.375,0.78125 -2.5293,6.25 -1,3.53125 -0.3125,0.6875 h -0.002 l -0.4375,0.875 -0.28125,-0.0606 -3.65625,-0.90625 -1.75,-2.34375 -2.9375,-0.4082 -0.1875,2.15625 -4.28125,0.59375 -1.96875,1.9375 -0.78125,2.15625 -12.09375,0.59375 -5.09375,2.71875 -0.1875,5.46875 -5.46875,2.15625 -3.71875,1.9375 h -3.125 l -1.15625,-1.34375 -1.75,1.75 -0.84375,0.15625 1,0.6875 -3.720703,3.3125 0.78125,0.78125 0.78125,1.5625 -1.96875,2.75 2.15625,1.1543 3.71875,0.78125 0.375,-1.56055 2.15625,2.75 h 3.531253 l 2.53125,-2.75 h 3.31054 l -3.5,1.75 0.18946,1.96875 0.78125,1.75 -2.15625,2.15625 h -2.343753 l 0.404293,2.9375 4.28125,-0.78125 5.09375,4.6875 -0.25,0.3125 0.004,0.002 -5.8125,7.5 -0.1875,4.6875 6.03125,5.84375 -0.1875,1.75 h 1.75 l 3.71875,11.15625 3.90625,1.9375 3.9043,3.90625 h 4.5 l 1.75,3.90625 h 4.3125 L 135,274 l 4.3125,2.15625 0.1875,-2.75 1.09375,1.03125 5.96875,-3.625 2.75,-0.18945 1.15625,3.125 3.71875,-1.56055 3.125,2.34375 2.53125,-1.1875 L 162,272.75 l 0.96875,-1.15625 2.71875,-1.75 -1.9375,-1.96875 -1.5625,1.1875 L 162,267.5 l 1.375,-2.5625 -1.375,-2.34375 1.15625,-1.5625 -0.59375,-5.46875 -1.93945,-2.90625 1.375,-1.7793 -3.125,-3.5 1.15625,-2.53125 -4.6875,-3.90625 v -2.34375 l -1.9375,-2.75 0.375,-0.15625 3.87795,-1.61107"
   style="fill:#cccccc;stroke:#ffffff;stroke-width:0.60000002" /><g
   style="font-variant-east_asian:normal;opacity:1;vector-effect:none;fill:#cccccc;fill-opacity:1;stroke:#ffffff;stroke-width:0.60000002;stroke-linecap:butt;stroke-linejoin:miter;stroke-miterlimit:4;stroke-dasharray:none;stroke-dashoffset:0;stroke-opacity:1"
   id="g924"><path
     id="path3289"
     d="m 241.9375,61.5 -1.28125,1.5625 -8.375,6.4375 -14.84375,3.71875 -9.78125,3.5 -8,4.3125 -4.6875,7.03125 -0.96875,5.46875 3.90625,2.9375 5.65625,1.15625 c -2.14349,0.688896 -2.45962,0.756162 -3.98167,1.299211 l -8.92458,3.980089 -8.375,3.3125 -6.65625,-3.71875 -16,-2.34375 -3.71875,-1.937503 c -2.66147,0.719638 -5.22039,1.264569 -7.627,1.941453 L 148.09175,95.470753 143,89.4375 l 1.5625,-3.90625 h 2.15625 l -1.93945,-5.279297 -8.40625,-0.40625 -4.5,3.125 -5.06055,-3.3125 -7.25,-2.158203 -0.78125,1.96875 4.125,3.3125 v 4.3125 l -1.5625,1.9375 L 122.3125,90 122.90625,90.40625 122.5,94.125 l 1.375,3.125 4.5,5.0625 0.96875,4.5 0.96875,1.375 v 7.03125 l 2.34375,4.6875 v 5.46875 l -2.5293,5.0625 2.71875,7.03125 4.31055,0.96875 0.375,1.96875 -2.125,0.96875 h -3.6875 l 0.59375,2.46875 1.15625,3.71875 3.34375,2.93945 1.5625,0.375 1.5625,-2.125 1.75,-0.2207 2.125,-2.5293 1.96875,1.56055 h 2.34375 l 1.5625,0.78125 v 0.375 l 3.31055,0.40625 1.9707,-1.5625 2.9043,1.18945 0.0625,0.125 h 0.002 l 1.31055,2.21875 2.15625,1.56055 2.93945,-1.96875 1.9375,1.375 5.28125,-3.125 5.28125,0.78125 2.9043,-1.1875 0.8125,-1.9375 1.9375,-0.18945 1.75,1.5625 0.78125,4.28125 2.53125,0.96875 1,3.53125 3.3125,0.1875 5.28125,-4.875 5.28125,-0.1875 L 204,154 l 0.96875,7.03125 3.3125,1.1875 1.96875,2.9375 h 4.09375 l 0.37525,-0.59425 0.002,5e-4 h 0.78125 l 2.75,4.09375 2.125,0.3457 v -4.625 l -1.3457,-1.78125 -0.4043,-1.5625 2.9375,-1.75 2.9375,-0.59375 1.9375,-2.34375 -0.375,-7.21875 -4.125,-3.5 -0.1875,-3.3457 -0.65429,-0.43945 2.80859,-2.68555 h 2.7207 l 7.06055,-3.6875 2.3125,0.96875 h 4.90625 l 1.15625,-1.375 v -2.93945 l 3.90625,-1.9375 v -3.125 l 1.06055,-0.875 -0.0937,-0.875 1,-1 -1.75,-0.375 v -1.5625 l -1,-1.56055 0.78125,-0.96875 5.46875,-1.5625 1.375,-2.34375 1.1875,-4.3125 1.4375,-1.78125 0.3125,-2.3125 1.75,0.9707 1.375,-0.375 -1,-1.5625 -0.5625,-4.5 -1.75,-1.5625 0.0312,-0.125 h 0.002 l 0.5293,-1.624997 1.375,-2.5625 0.78125,-1.34375 H 256.3106 V 91.5 l -1.15625,-1.9375 0.78125,-3.90625 0.78125,-1.96875 h -1.5625 l 0.78125,-1.939453 1.9375,-2.34375 -1.9375,-3.53125 -0.59375,-3.5 -8.59375,-8.404297 -0.96875,-1.939453 -2.15625,0.189453 z"
     style="fill:#cccccc;stroke:#ffffff;stroke-width:0.60000002;font-variant-east_asian:normal;vector-effect:none;fill-opacity:1;stroke-linecap:butt;stroke-linejoin:miter;stroke-miterlimit:4;stroke-dasharray:none;stroke-dashoffset:0;stroke-opacity:1" /></g><path
   id="path3309"
   d="m 247.15625,126.09375 -1.1875,0.96875 v 3.125 l -3.90625,1.93945 v 2.9375 l -1.15625,1.375 H 236 l -2.3125,-0.96875 -7.06055,3.6875 h -2.7207 l -2.81055,2.6875 0.65625,0.4375 0.1875,3.34571 4.125,3.5 0.375,7.21875 -1.9375,2.34375 -2.93945,0.59375 -2.9375,1.75 0.40625,1.5625 1.34375,1.78125 V 169 l 0.40625,0.0625 L 223.5,171 l -1,1.25 -1.3125,1.6875 -1.56055,2.71875 1.9375,1.78125 -0.1875,4.09375 -0.78125,2.7207 h -1.96875 v 3.71875 l -2.7207,3.53125 -2.9375,1.1543 -1.375,1.75 0.59375,1.4707 0.375,0.87305 -5.65625,1.5625 -1.34375,1.96875 -2.375,-1.5625 1.18945,3.90625 h -2.15625 l -3.90625,-2.75 -1.9375,3.90625 0.96875,1.1875 v 1.15625 l -1.96875,2.5625 0.21875,4.28125 -3.125,3.71875 -2.21875,8 h 0.25 l 0.7793,3.125 3.7207,0.78125 v 2.34375 l 4.6875,1.375 v 3.71875 l -0.1875,2.34375 h 5.84375 l 5.09375,-1.1875 -0.40625,-2.15625 1.5625,-0.96875 1.56055,2.15625 1.375,0.59375 1.15625,4.6875 3.34375,3.5 0.375,2.75 3.03125,3 0.5,0.5 v 3.71875 l -0.78125,2.34375 3.71875,2.93945 1.9375,1.9375 3.125,0.40625 1.18945,4.09375 2.125,1.15625 -0.375,2.9375 v 0 l -0.008,0.48169 3.91193,0.29956 1.75,-1.75 3.125,3.125 3.90625,-4.5 1.75,1.1875 2.34375,-0.21875 0.78125,0.40625 3.53125,0.1875 1.15625,-3.125 9.78125,1.1875 3.71875,0.96875 1.68359,-0.1875 4.59375,-0.5625 0.9375,-2 2.53125,-2.90625 4.875,-1 2.5625,0.78125 2.71875,-2.125 -0.1875,-1.5625 -0.9707,-0.78125 v -3.125 l 5.25,-5.28125 1.9707,2.15625 1.75,-1.78125 1.56055,-0.1875 2.71875,-3.5 4.5,0.375 0.0625,1.0625 1.5,-4.78125 -0.96875,-1.75 0.1875,-2.53125 0.59375,-5.09375 -2.1543,-2.125 0.4043,-4.6875 -1.96875,-4.125 -0.1875,-2.71875 -3.53125,-2.75 L 299.5,216.5 l 1.75,-2.53125 V 210.25 l -2.0293,-2.37109 -0.002,-0.004 h -0.002 l -0.3086,-0.33984 -0.1875,-1.96875 3.90625,-1.15625 -0.59375,-2.15625 -0.59375,-3.125 -2.53125,-3.5 -0.59375,-2.15625 h 3.90625 l 2.75,-1.96875 0.375,-2.90625 -1.75,-1.96875 5.09375,-4.28125 v -3.53125 l -2.5625,-2.71875 -0.96875,-3.125 -3.53125,-3.34375 -4.875,2.75 -0.375,-1.5625 -2.15625,-0.1875 -0.59375,1.5625 -1.9375,0.375 -5.28125,-0.1875 -2.15625,1.375 -1.75,-1.5625 3.125,-2.15625 -0.1875,-3.3125 -2.34375,-1.1875 -1.96875,-2.9375 -5.25,-0.375 -2.1582,-1.75391 -2.53125,2.34375 -5.71875,0.5 -0.53125,0.0625 -0.40625,-5.25 -0.4043,-0.59375 L 263.75,155 l -4.09375,-0.78125 -1.78125,-2.15625 -0.5625,-4.31055 -2.34375,-0.375 -0.40625,-2.15625 -2.7168,-1.93945 -1.375,-3.34375 1.375,-2.34375 -1.375,-1.5625 v -1.9375 l 0.78125,-2.15625 -1.5625,-1.56055 -0.59375,-2.3457 z"
   style="fill:#cccccc;stroke:#ffffff;stroke-width:0.60000002;font-variant-east_asian:normal;opacity:1;vector-effect:none;fill-opacity:1;stroke-linecap:butt;stroke-linejoin:miter;stroke-miterlimit:4;stroke-dasharray:none;stroke-dashoffset:0;stroke-opacity:1" /><path
   id="path3311"
   d="m 318.4375,157.34375 -1.75,1.34375 -7.625,-0.375 -3.5,1.75 -1.375,2.9375 1.56055,1.75 -2.34375,2.75 -1.78125,2.125 3.53125,3.34375 0.96875,3.125 2.5625,2.71875 v 3.53125 l -5.09375,4.28125 1.75,1.96875 -0.375,2.90625 -2.75,1.96875 h -3.90625 l 0.59375,2.15625 2.53125,3.5 0.59375,3.125 0.59375,2.15625 -1.1543,0.34375 -2.75,0.8125 0.1875,1.96875 2.34375,2.71875 v 3.71875 l -1.75,2.53125 0.5625,2.34375 3.53125,2.75 0.1875,2.71875 1.96875,4.125 -0.40625,4.68945 2.15625,2.125 -0.59375,5.09375 -0.1875,2.53125 0.96875,1.75 -1.5,4.7793 0.125,1.4707 3.34375,1.56055 L 312,255 l 2.125,-1.1875 1.96875,-1.15625 0.40625,1.75 h 2.90625 l 0.78125,-1.5625 1.75,0.78125 0.59375,2.53125 1.5625,-0.375 3.71875,-5.09375 1.9375,1.375 0.3125,0.59375 3.625,6.8125 v 2.9375 l 0.96875,1.1875 h 3.3125 l 1.1543,1.5625 h 3.125 l 1.375,1.9375 -0.1875,7.625 -4.09375,3.125 -0.0937,0.21875 0.28125,-0.0312 0.59375,0.18945 0.1875,3.125 2.9375,0.59375 0.375,1.375 h 1.5625 l 2.34375,-1.375 6.25,0.96875 1.18945,1.1875 1.56055,-1.5625 h 2.15625 l 1.15625,-6.25 0.78125,-0.59375 h 1.9375 l 2.375,1.5625 1.75,-1.5625 1.15625,1.5625 1.78125,-1.75 2.125,-0.1875 1,3.125 0.75,3.90625 1.375,0.1875 1.1875,-2.75 3.6875,-14.4375 1.375,-2.53125 2.15625,-0.21875 2.15625,1.78125 1.5625,-0.40625 1.9375,-1.375 1.96875,0.40625 1.15625,2.5293 1.125,0.43945 h 0.004 l 2.40235,0.93555 3.90625,5.46875 2.53125,1.15625 v 2.75 l 2.9375,-0.40625 3.71875,-4.09375 3.125,1.5625 v 2.34375 h 5.65625 l 8.125,-8.93945 -0.34375,-0.1875 0.375,-4.09375 2.9375,-3.5 -1.96875,-0.78125 0.18554,-1.17969 h 0.004 l 0.0312,-0.1875 12.09375,-11.34375 -0.375,-9.375 4.28125,-2.125 2.9375,-1.375 2.71875,-2.53125 0.21875,-3.71875 2.71875,-1.375 6.25,-7.21875 -0.96875,-2.3457 2.15625,-0.96875 2.53125,-3.125 -1.375,-1.37891 -4.6875,0.96875 -0.18945,-0.7793 4.3125,-4.9707 0.002,0.002 0.75,-0.875 2.59375,-0.40625 -0.96875,-4.15625 -0.59375,-2.15625 -2.75,0.40625 -0.375,-2.34375 0.96875,-1.78125 0.18945,-2.34375 -0.5625,-1.34375 -3.53125,-2.75 -3.125,-0.1875 -0.5957,-1.18945 -0.002,-0.004 v 0 l 0.002,0.004 -0.002,-0.004 0.002,0.004 -0.002,-0.004 0.002,0.004 v 0 l -0.002,-0.004 v 0 l 0.002,0.004 -0.002,-0.004 0.002,0.004 -0.002,-0.004 -0.18946,-0.375 -6.25,-3.31054 -1.75,-1.97071 -1.75,-1.15429 -1.55859,0.7832 -0.21875,1.15625 -1.5625,0.96875 h -0.96875 l -2.93945,-3.3125 h -4.09375 l -1.75,1.375 -1.56055,0.18945 -2.53125,-1.93945 0.1875,-2.15625 -1,-0.78125 -3.6875,0.59375 -0.59375,1.9375 -1.9707,1.375 -1.34375,-1.56055 -0.96875,0.59375 0.75,1.15625 -1.9375,1.1875 0.59375,1.5625 -2.15625,0.78125 v 2.5293 h -2.75 l -0.1875,1.5625 -2.71875,0.59375 0.1875,2.34375 1.75,0.18945 -0.9668,1.1543 -0.59375,3.90625 h -1.75 l -2.9375,1.1875 -3.125,-1.1875 -2.7207,1.1875 v 1.96875 l 0.002,-0.002 -0.002,0.002 0.002,-0.002 v 0 l -0.1875,-0.0253 -0.8125,1.96875 -4.28125,0.96875 -0.40625,-0.96875 -3.125,-3.90625 -1.75,0.96875 -2.34375,-0.1875 -0.78125,-1.5625 -3.125,0.18359 -0.18945,-3.3125 -1.75,-1.1875 2.53125,-2.71875 -4.5,-6.0625 -3.5,-3.71875 -3.125,-1.75 h -5.6543 l -0.40625,2.53125 -2.53125,1.375 -6.4375,0.1875 -1,2.15625 -1.375,-0.1875 -1.15625,-2.15625 -3.90625,1.96875 -7.81055,-0.40625 -0.9707,-2.15625 -2.1543,-2.90625 -0.375,-3.5293 -3.125,-3.7207 -1.9707,1.375 -3.5293,-2.71875 0.59375,-5.28125 -5.0625,-5.2793 h -2.34375 z"
   style="fill:#cccccc;stroke:#ffffff;stroke-width:0.60000002;font-variant-east_asian:normal;opacity:1;vector-effect:none;fill-opacity:1;stroke-linecap:butt;stroke-linejoin:miter;stroke-miterlimit:4;stroke-dasharray:none;stroke-dashoffset:0;stroke-opacity:1" /><path
   id="path3337"
   d="m 367.625,55.84375 -1.96875,2.90625 -1.75,1.78125 v 1.75 2.34375 l -2.34375,1.5625 -4.28125,1.375 -2.34375,0.96875 -2.75,-2.15625 h -3.71875 l -0.53125,3.46875 1.75,3.3125 -1.75,1.5625 -0.18945,2.9375 0.9707,1.5625 L 347.9375,81.5625 345,83.125 v 2.53125 L 341.28125,86.4375 340.6875,88 l 2.56055,1.375 -0.7793,2.71875 -0.5957,2.34375 0.12695,4.875 0.0625,1.78125 -1.375,0.375 -3.3125,-2.15625 -2.34375,1 0.40625,1.9375 h -4.125 l -3.68945,2.75 v 5.25 l 2.7207,1.78125 0.7793,1.75 -4.5,0.375 -0.56055,1.78125 1.75,1.15625 -0.78125,1.1875 -1.75,0.78125 0.375,1.34375 h 2.53125 l 1,1.375 -1.75,1.1875 -1.5625,4.09375 -2.9375,1.375 -1,2.125 -0.96875,1.18945 0.21875,1.1543 -1.5625,1 -0.40625,2.7207 1.5625,0.96875 0.78125,2.9375 -0.96875,1.75 0.59375,1.375 2.90625,-0.1875 v 0.96875 0.59375 l -2.7207,1.15625 -0.1875,2.34375 -1.375,1.78125 -0.78125,3.90625 -0.4375,3.28125 1.21875,1 h 2.34375 l 5.0625,5.2793 -0.59375,5.28125 3.53125,2.71875 1.96875,-1.375 3.125,3.7207 0.375,3.5293 2.15625,2.90625 0.96875,2.15625 7.8125,0.40625 3.90625,-1.96875 1.15429,2.15625 L 353,183.5 l 1,-2.15625 6.4375,-0.1875 2.53125,-1.375 0.40625,-2.53125 h 5.65625 l 0.78125,0.4375 2.34375,1.3125 3.5,3.71875 4.5,6.0625 -2.53125,2.71875 1.75,1.1875 0.1875,3.3125 3.125,-0.1875 0.78125,1.56055 2.34375,0.18945 1.75,-0.96875 3.125,3.9043 0.40625,0.9707 4.28125,-0.9707 0.8125,-1.96875 0.1875,0.0312 v -1.96875 l 2.71875,-1.1875 3.125,1.1875 2.9375,-1.1875 h 1.75 l 0.5957,-3.90625 0.96875,-1.15625 -1.75,-0.1875 -0.18945,-2.34375 2.7207,-0.59375 0.1875,-1.5625 h 2.75 v -2.53125 l 2.15625,-0.78125 -0.59375,-1.5625 0.58789,-0.3711 h 0.002 l 0.004,-0.004 1.33985,-0.8086 -0.75,-1.15625 0.96875,-0.59375 1.34375,1.5625 1.9707,-1.375 0.59375,-1.9375 3.6875,-0.59375 1,0.7793 -0.1875,2.15625 2.53125,1.93945 1.56055,-0.18945 1.75,-1.375 h 4.09375 l 2.93945,3.3125 h 0.96875 l 1.5625,-0.96875 0.21875,-1.15625 1.56055,-0.78125 1.75,1.15625 1.75,1.96875 6.15625,3.25 0.0918,0.0625 0.78125,1.5625 3.125,0.1875 3.53125,2.75 0.5625,1.34375 -0.1875,2.34375 -0.96875,1.78125 0.375,2.34375 2.75,-0.40625 0.59375,2.15625 0.96875,4.15625 2.3125,-0.375 -0.40625,2.125 1.375,1.1875 7.21875,-0.1875 3.71875,-2.9375 0.1875,-4.3125 1.96875,-2.53125 -2.56054,-2.9375 -1.34571,-3.125 1.5625,-2.125 V 183.75 l 0.96875,-2.34375 V 177.5 l 1.75,-2.53125 -1.9375,-2.71875 -0.1875,-5.625 h 0.006 v 0 0 0 0 L 477.375,166 l 5.09375,-9.96875 -0.59375,-5.65625 2.34375,-7.625 0.59375,-6.65625 5.0625,-3.6875 v -2.34375 l 1.96875,-2.5625 h 1.5625 l 1.75,-1.75 -0.375,-3.3125 1.75,-4.6875 2.71875,-0.59375 -2.71875,-2.15625 -4.875,-0.5625 -4.3125,-2.15625 -2.9375,1.75 -1.5625,-1.75 h -2.125 L 477,113.3125 l -0.40625,0.125 -1.34375,-1.9375 -3.90625,-2.34375 -1.375,-2.15625 -4.68945,0.40625 -2.75,2.53125 -6.625,0.1875 -1.96875,-1.375 c -0.131,-0.239 -1.0915,-1.93625 -1.9375,-2.40625 -0.033,-0.018 -0.086,-0.0465 -0.125,-0.0625 -0.027,-0.012 -0.0697,-0.0223 -0.0937,-0.0293 -0.01,-0.005 -0.0515,-0.0252 -0.0625,-0.0312 h -0.0312 c -0.025,-10e-4 -0.0737,0 -0.0937,0 -0.916,0 -2.68825,-1.02725 -2.90625,-1.15625 l -2.75,1.15625 -0.1875,2.34375 -3.3125,0.40625 -1.96875,-3.71875 -1.15625,-0.40625 v -2.71875 l -2.75,-1.18945 -0.1875,-4.6875 -1.96875,-1.9375 -4.09375,-1.96875 h -1.93946 l -0.59375,0.404297 h -1.96875 l -2.71484,-2.341797 -2.93945,0.1875 -2.34375,1.96875 -0.59375,0.96875 h -3.3125 l -1.15625,-1.1875 h -0.5 c 5e-5,0.0011 -5e-5,8.4e-4 0,0.002 h -2.6211 l -3.53125,-3.90625 h -4.50195 v -0.002 l -2.3457,2.15625 -3.31055,0.1875 -1.15625,1.189453 h -0.25 v 0 0 0 l -0.93945,-0.002 -0.78125,-3.71875 -1.5625,-1.5625 -1.12305,-0.15625 -1.40625,-0.21875 -0.78125,-3.90625 -1.56055,-1.1875 -5.4707,-0.59375 -0.96875,-2.53125 -1.78125,-1.15625 -6.25,-0.78125 -0.375,-4.5 0.78125,-0.779297 v -1.75 L 369.1875,67.15625 369.78125,65 l 0.78125,-1.9375 -1.375,-1.189453 2.15625,-1.9375 v -3.53125 L 370.5625,55.84375 Z"
   style="fill:#cccccc;stroke:#ffffff;stroke-width:0.60000002;font-variant-east_asian:normal;opacity:1;vector-effect:none;fill-opacity:1;stroke-linecap:butt;stroke-linejoin:miter;stroke-miterlimit:4;stroke-dasharray:none;stroke-dashoffset:0;stroke-opacity:1" /><path
   id="path3339"
   d="M 285.78125,4.0625 279.53125,7 269.25,8.65625 v 0 0 l -10.8125,2.0625 v 0 0 l -8.5918,6.625 v 26.375 l -0.0625,0.779297 v 0 0 l -0.5332,6.439453 4.3125,3.90625 v 1.96875 l -5.28125,-3.125 -6.34375,7.8125 1.6875,0.71875 2.15625,-0.1875 0.96875,1.9375 8.59375,8.40625 0.59375,3.5 1.9375,3.53125 -0.76674,0.911937 v 0 l -1.17266,1.42986 -0.77935,1.939453 h 1.5625 l -0.78125,1.96875 -0.78125,3.90625 1.15625,1.939453 v 3.34375 h 1.96875 l -0.78125,1.34375 -1.375,2.5625 -0.5625,1.749997 1.75,1.56055 0.5625,4.5 1,1.5625 -1.375,0.375 -1.75,-0.96875 -0.3125,2.3125 0.125,-0.15625 0.75,1.75 1.18945,1.9375 5.2793,0.40625 3.7207,-0.40625 2.5293,-1.9375 3.125,1.9375 1.5625,1.1875 2.34375,-0.59375 2.125,-0.96875 4.125,2.15625 4.28125,2.53125 1.375,1.375 2.34375,-1.5625 1.93945,1.15625 1.1875,0.96875 1.75,-0.1875 1.1875,-1.5625 2.71875,1.5625 3.34375,-1.375 1.93946,0.59375 1.9375,-1.5625 1.1875,-0.59375 v 0 l 2.15409,1.563 2e-4,-0.002 0.59571,4.31054 5.25,5.0625 1.75,0.59375 1,2.34375 3.27929,0.68946 0.40625,-0.5 1,-2.125 2.93946,-1.375 1.56054,-4.09375 1.75,-1.18946 -1,-1.375 h -2.53125 l -0.375,-1.34375 1.75,-0.78125 0.78125,-1.1875 -1.75,-1.15625 0.5625,-1.78125 4.5,-0.375 -0.78125,-1.75 -2.71875,-1.78125 V 105 l 3.6875,-2.75 h 4.125 l -0.40625,-1.9375 2.34571,-1 3.31054,2.15625 1.375,-0.375 -0.1875,-6.65625 0.59375,-2.34375 0.78125,-2.720703 L 340.6875,88 341.28125,86.4375 345,85.65625 V 83.125 l 2.9375,-1.5625 0.78125,-2.34375 -0.96875,-1.5625 0.1875,-2.9375 1.75,-1.5625 -1.75,-3.310547 0.53125,-3.46875 v 0 l -4.28325,-0.002 v 0 L 344,64.4375 l 3.90625,-2.34375 -0.59375,-3.71875 -3.71875,-0.96875 0.96875,-1 V 53.6875 l 2.9375,-2.15625 -0.78125,-1.5625 -6.25,-4.875 -10.9375,0.59375 -1.15625,1.939453 H 327 l 0.1875,-6.845703 -3.125,-3.6875 -2.34375,0.375 -1.375,-1.5625 -3.90625,1.75 -1.34375,-1.34375 -2.75,-0.40625 -0.78125,-2.529297 -0.1875,-7.8125 -1.75,-0.78125 -0.21875,-1.1875 H 308.25 l -0.40625,-2.34375 -2.53125,0.21875 -4.875,1.560547 -2.34375,2.90625 H 295.75 L 294.1875,24 293.59375,21.84375 291.6543,19.6875 h -2.75 l -1.15625,-2.125 v -3.34375 l 1.3457,-2.125 -0.78125,-2.9375 z"
   style="fill:#cccccc;fill-opacity:1;stroke:#ffffff;stroke-width:0.60000002;font-variant-east_asian:normal;opacity:1;vector-effect:none;stroke-linecap:butt;stroke-linejoin:miter;stroke-miterlimit:4;stroke-dasharray:none;stroke-dashoffset:0;stroke-opacity:1" /><path
   id="path3359"
   d="M 255.5625,109.6875 254,111.625 l -1.1875,4.3125 -1.3125,2.21875 -0.0625,0.125 -5.46875,1.5625 -0.78125,0.96875 1,1.56055 v 1.5625 l 1.75,0.375 -1,1 0.0937,0.875 0.125,-0.0937 1.93945,1.9375 0.59375,2.34375 1.5625,1.5625 -0.78125,2.15625 v 1.9375 l 1.375,1.5625 -1.375,2.34375 1.375,3.34375 2.7168,1.93945 0.40625,2.1543 2.34375,0.375 0.5625,4.3125 1.78125,2.15625 3.15625,0.59375 v 0.002 L 263.75,155 l 0.375,2.53125 0.40625,0.59375 0.40625,5.25 6.25,-0.5625 2.53125,-2.34375 2.1543,1.75 5.25,0.375 0.75,1.125 0.002,0.002 v 0 0 l 1.21875,1.81055 2.34375,1.18945 0.18945,3.31055 -3.125,2.15625 1.75,1.5625 2.1543,-1.375 5.28125,0.1875 1.93945,-0.375 0.59375,-1.56055 2.15625,0.1875 0.375,1.5625 4.875,-2.75 1.7793,-2.125 2.3457,-2.75 -1.5625,-1.75 1.375,-2.93945 3.5,-1.75 7.625,0.375 1.75,-1.34375 0.15625,0.15625 0.4375,-3.28125 0.78125,-3.90625 1.375,-1.78125 0.1875,-2.34375 2.71875,-1.15625 v -1.56055 l -2.90625,0.1875 -0.59375,-1.375 0.96875,-1.75 -0.78125,-2.9375 -1.56054,-0.96875 0.40625,-2.7207 1.56054,-1 -0.21875,-1.1543 0.5625,-0.68945 -3.28125,-0.6875 -1,-2.34375 -1.75,-0.59375 -5.25,-5.0625 -0.59375,-4.3125 -2.1582,-1.5625 -1.1875,0.59375 -1.93945,1.5625 -1.9375,-0.59375 -3.34375,1.375 -2.71875,-1.5625 -1.1875,1.5625 -1.75,0.1875 -1.18946,-0.96875 -1.9375,-1.15625 -2.34375,1.5625 -0.0898,-0.0898 v -0.004 l -1.28125,-1.28125 -4.28125,-2.53125 -4.125,-2.15625 -2.125,0.96875 -2.34375,0.59375 -1.5625,-1.1875 -3.125,-1.9375 -2.53125,1.9375 -3.71875,0.40625 -5.28125,-0.40625 -1.1875,-1.9375 z"
   style="fill:#cccccc;stroke:#ffffff;stroke-width:0.60000002;font-variant-east_asian:normal;opacity:1;vector-effect:none;fill-opacity:1;stroke-linecap:butt;stroke-linejoin:miter;stroke-miterlimit:4;stroke-dasharray:none;stroke-dashoffset:0;stroke-opacity:1" />

</svg>